<svg xmlns="http://www.w3.org/2000/svg">
  <symbol id="icon-book-open" viewBox="0 0 24 24" fill="none" stroke="currentColor" stroke-width="1.8" stroke-linecap="round" stroke-linejoin="round">
    <path d="M3.5 5.5c3.1-.8 5.9-.2 8.5 1.8v13c-2.6-2-5.4-2.6-8.5-1.8z"/>
    <path d="M20.5 5.5c-3.1-.8-5.9-.2-8.5 1.8v13c2.6-2 5.4-2.6 8.5-1.8z"/>
  </symbol>
  <symbol id="icon-microphone" viewBox="0 0 24 24" fill="none" stroke="currentColor" stroke-width="1.8" stroke-linecap="round" stroke-linejoin="round">
    <rect x="8" y="3" width="8" height="12" rx="4"/>
    <path d="M5 11a7 7 0 0 0 14 0M12 18v3M8.5 21h7"/>
  </symbol>
  <symbol id="icon-pen-line" viewBox="0 0 24 24" fill="none" stroke="currentColor" stroke-width="1.8" stroke-linecap="round" stroke-linejoin="round">
    <path d="m4 20 4.4-1 10-10-3.4-3.4-10 10zM13.8 6.8l3.4 3.4M3.5 21h17"/>
  </symbol>
  <symbol id="icon-hand-wave" viewBox="0 0 24 24" fill="none" stroke="currentColor" stroke-width="1.8" stroke-linecap="round" stroke-linejoin="round">
    <path d="M7.5 12V7.5a1.5 1.5 0 0 1 3 0V11M10.5 10V5.5a1.5 1.5 0 0 1 3 0V10M13.5 10V6.5a1.5 1.5 0 0 1 3 0V11M16.5 10a1.5 1.5 0 0 1 3 0v4c0 4.4-2.7 7-7 7-3 0-4.5-1.2-6-3l-2.2-2.7a1.6 1.6 0 0 1 2.3-2.2l1.9 1.5"/>
    <path d="M4 8 2.5 6.5M5 4.5 4.5 2.5M19.5 4.5 21 3"/>
  </symbol>
  <symbol id="icon-messages" viewBox="0 0 24 24" fill="none" stroke="currentColor" stroke-width="1.8" stroke-linecap="round" stroke-linejoin="round">
    <path d="M4 5h13v9H9l-5 4z"/>
    <path d="M9 9h4M11 18h4l5 3v-9h-3"/>
  </symbol>
  <symbol id="icon-target" viewBox="0 0 24 24" fill="none" stroke="currentColor" stroke-width="1.8" stroke-linecap="round" stroke-linejoin="round">
    <circle cx="12" cy="12" r="8.5"/>
    <circle cx="12" cy="12" r="4.5"/>
    <circle cx="12" cy="12" r="1"/>
    <path d="m14.8 9.2 5-5M17 4h3v3"/>
  </symbol>
  <symbol id="icon-mail" viewBox="0 0 24 24" fill="none" stroke="currentColor" stroke-width="1.8" stroke-linecap="round" stroke-linejoin="round">
    <rect x="3" y="5" width="18" height="14" rx="2"/>
    <path d="m4 7 8 6 8-6"/>
  </symbol>
  <symbol id="icon-file-text" viewBox="0 0 24 24" fill="none" stroke="currentColor" stroke-width="1.8" stroke-linecap="round" stroke-linejoin="round">
    <path d="M5 3h10l4 4v14H5z"/>
    <path d="M14 3v5h5M9 12h6M9 16h6"/>
  </symbol>
  <symbol id="icon-scale" viewBox="0 0 24 24" fill="none" stroke="currentColor" stroke-width="1.8" stroke-linecap="round" stroke-linejoin="round">
    <path d="M12 3v18M7 21h10M4 7h16M7 7l-4 7h8zM17 7l-4 7h8z"/>
  </symbol>
  <symbol id="icon-theater" viewBox="0 0 24 24" fill="none" stroke="currentColor" stroke-width="1.8" stroke-linecap="round" stroke-linejoin="round">
    <path d="M3.5 4.5h9v6.2c0 4-1.8 6.6-4.5 8-2.7-1.4-4.5-4-4.5-8z"/>
    <path d="M12.5 6h8v6.2c0 3.7-1.7 6.2-4.2 7.6a8.2 8.2 0 0 1-3.3-3.4"/>
    <path d="M6 9h.1M10 9h.1M6.2 14c1.2-1 2.4-1 3.6 0M15 11h.1M18 11h.1M15.2 15c1.1.8 2.1.8 3.2 0"/>
  </symbol>
  <symbol id="icon-users" viewBox="0 0 24 24" fill="none" stroke="currentColor" stroke-width="1.8" stroke-linecap="round" stroke-linejoin="round">
    <circle cx="9" cy="8" r="3"/>
    <circle cx="17" cy="9" r="2.4"/>
    <path d="M3.5 20v-1.7c0-3 2.4-5.3 5.5-5.3s5.5 2.3 5.5 5.3V20M14 14.2c.8-.8 1.8-1.2 3-1.2 2.4 0 4 1.8 4 4.2V19"/>
  </symbol>
  <symbol id="icon-graduation-cap" viewBox="0 0 24 24" fill="none" stroke="currentColor" stroke-width="1.8" stroke-linecap="round" stroke-linejoin="round">
    <path d="m2.5 9 9.5-5 9.5 5-9.5 5zM6 11.2v5.3c3.7 2.4 8.3 2.4 12 0v-5.3M21.5 9v6"/>
  </symbol>
  <symbol id="icon-stethoscope" viewBox="0 0 24 24" fill="none" stroke="currentColor" stroke-width="1.8" stroke-linecap="round" stroke-linejoin="round">
    <path d="M5 3v5a5 5 0 0 0 10 0V3M3.5 3h3M13.5 3h3M10 13v2a5 5 0 0 0 10 0v-2"/>
    <circle cx="20" cy="11" r="2"/>
  </symbol>
  <symbol id="icon-laptop" viewBox="0 0 24 24" fill="none" stroke="currentColor" stroke-width="1.8" stroke-linecap="round" stroke-linejoin="round">
    <rect x="4" y="4" width="16" height="12" rx="1.5"/>
    <path d="M2.5 19h19M8.5 19l.8-3h5.4l.8 3"/>
  </symbol>
  <symbol id="icon-globe" viewBox="0 0 24 24" fill="none" stroke="currentColor" stroke-width="1.8" stroke-linecap="round" stroke-linejoin="round">
    <circle cx="12" cy="12" r="9"/>
    <path d="M3 12h18M12 3c2.3 2.5 3.5 5.5 3.5 9S14.3 18.5 12 21M12 3C9.7 5.5 8.5 8.5 8.5 12S9.7 18.5 12 21"/>
  </symbol>
  <symbol id="icon-euro" viewBox="0 0 24 24" fill="none" stroke="currentColor" stroke-width="1.8" stroke-linecap="round" stroke-linejoin="round">
    <path d="M19 6.5A7 7 0 1 0 19 17.5M4 10h11M4 14h10"/>
  </symbol>
  <symbol id="icon-check" viewBox="0 0 24 24" fill="none" stroke="currentColor" stroke-width="2.2" stroke-linecap="round" stroke-linejoin="round">
    <path d="m5 12.5 4.3 4.3L19.5 6.5"/>
  </symbol>
  <symbol id="icon-x" viewBox="0 0 24 24" fill="none" stroke="currentColor" stroke-width="2" stroke-linecap="round">
    <path d="m6 6 12 12M18 6 6 18"/>
  </symbol>
  <symbol id="icon-circle-dot" viewBox="0 0 24 24" fill="none" stroke="currentColor" stroke-width="1.8">
    <circle cx="12" cy="12" r="8"/>
    <circle cx="12" cy="12" r="2.4" fill="currentColor" stroke="none"/>
  </symbol>
  <symbol id="icon-sparkles" viewBox="0 0 24 24" fill="none" stroke="currentColor" stroke-width="1.8" stroke-linecap="round" stroke-linejoin="round">
    <path d="M12 2.5c.8 4.1 3 6.3 7 7-4 .8-6.2 3-7 7-.8-4-3-6.2-7-7 4-.7 6.2-2.9 7-7zM19 15.5c.4 2 1.5 3.1 3.5 3.5-2 .4-3.1 1.5-3.5 3.5-.4-2-1.5-3.1-3.5-3.5 2-.4 3.1-1.5 3.5-3.5zM4.5 2.5c.3 1.5 1.1 2.3 2.5 2.5-1.4.3-2.2 1.1-2.5 2.5C4.2 6.1 3.4 5.3 2 5c1.4-.2 2.2-1 2.5-2.5z"/>
  </symbol>
  <symbol id="icon-wifi-off" viewBox="0 0 24 24" fill="none" stroke="currentColor" stroke-width="1.8" stroke-linecap="round" stroke-linejoin="round">
    <path d="M2.5 8.5a15 15 0 0 1 3.8-2.3M10.2 4.2A15.6 15.6 0 0 1 21.5 8.5M5.5 12a10 10 0 0 1 4.1-2M14.2 10.1A10 10 0 0 1 18.5 12M8.7 15.2a5 5 0 0 1 6.6 0M12 19h.01M3 3l18 18"/>
  </symbol>
  <symbol id="icon-sun" viewBox="0 0 24 24" fill="none" stroke="currentColor" stroke-width="1.8" stroke-linecap="round">
    <circle cx="12" cy="12" r="4"/>
    <path d="M12 2v2M12 20v2M4.9 4.9l1.4 1.4M17.7 17.7l1.4 1.4M2 12h2M20 12h2M4.9 19.1l1.4-1.4M17.7 6.3l1.4-1.4"/>
  </symbol>
  <symbol id="icon-moon" viewBox="0 0 24 24" fill="none" stroke="currentColor" stroke-width="1.8" stroke-linecap="round" stroke-linejoin="round">
    <path d="M20.5 15.4A8.5 8.5 0 0 1 8.6 3.5 8.6 8.6 0 1 0 20.5 15.4z"/>
  </symbol>
  <symbol id="icon-download" viewBox="0 0 24 24" fill="none" stroke="currentColor" stroke-width="1.8" stroke-linecap="round" stroke-linejoin="round">
    <path d="M12 3v12M7.5 10.5 12 15l4.5-4.5M4 20h16"/>
  </symbol>
  <symbol id="icon-pencil" viewBox="0 0 24 24" fill="none" stroke="currentColor" stroke-width="1.8" stroke-linecap="round" stroke-linejoin="round">
    <path d="m4 20 4.5-1 10-10-3.5-3.5-10 10zM13.8 6.7l3.5 3.5"/>
  </symbol>
  <symbol id="icon-arrow-right" viewBox="0 0 24 24" fill="none" stroke="currentColor" stroke-width="1.8" stroke-linecap="round" stroke-linejoin="round">
    <path d="M4 12h16M14 6l6 6-6 6"/>
  </symbol>
  <symbol id="icon-arrow-left" viewBox="0 0 24 24" fill="none" stroke="currentColor" stroke-width="1.8" stroke-linecap="round" stroke-linejoin="round">
    <path d="M20 12H4M10 6l-6 6 6 6"/>
  </symbol>
  <symbol id="icon-arrow-left-right" viewBox="0 0 24 24" fill="none" stroke="currentColor" stroke-width="1.8" stroke-linecap="round" stroke-linejoin="round">
    <path d="M4 8h16M16 4l4 4-4 4M20 16H4M8 12l-4 4 4 4"/>
  </symbol>
  <symbol id="icon-external-link" viewBox="0 0 24 24" fill="none" stroke="currentColor" stroke-width="1.8" stroke-linecap="round" stroke-linejoin="round">
    <path d="M14 4h6v6M20 4 11 13M18 13v6H5V6h6"/>
  </symbol>
  <symbol id="icon-copy" viewBox="0 0 24 24" fill="none" stroke="currentColor" stroke-width="1.8" stroke-linecap="round" stroke-linejoin="round">
    <rect x="8" y="8" width="11" height="11" rx="2"/>
    <path d="M16 8V6a2 2 0 0 0-2-2H6a2 2 0 0 0-2 2v8a2 2 0 0 0 2 2h2"/>
  </symbol>
  <symbol id="icon-clipboard-paste" viewBox="0 0 24 24" fill="none" stroke="currentColor" stroke-width="1.8" stroke-linecap="round" stroke-linejoin="round">
    <path d="M9 5H6a2 2 0 0 0-2 2v12a2 2 0 0 0 2 2h12a2 2 0 0 0 2-2V7a2 2 0 0 0-2-2h-3"/>
    <rect x="9" y="3" width="6" height="4" rx="1"/>
    <path d="M12 10v7m-3-3 3 3 3-3"/>
  </symbol>
</svg>
